<svg xmlns="http://www.w3.org/2000/svg" viewBox="0 0 512 512">
  <defs>
    <linearGradient id="rg" x1="0" y1="0" x2="1" y2="1"><stop offset="0%" stop-color="rgb(255, 107, 157)"/><stop offset="3%" stop-color="rgb(251, 108, 162)"/><stop offset="6%" stop-color="rgb(247, 109, 167)"/><stop offset="9%" stop-color="rgb(244, 111, 173)"/><stop offset="11%" stop-color="rgb(240, 112, 178)"/><stop offset="14%" stop-color="rgb(237, 114, 184)"/><stop offset="17%" stop-color="rgb(233, 115, 189)"/><stop offset="20%" stop-color="rgb(229, 117, 195)"/><stop offset="23%" stop-color="rgb(226, 118, 200)"/><stop offset="26%" stop-color="rgb(222, 119, 205)"/><stop offset="29%" stop-color="rgb(219, 121, 211)"/><stop offset="31%" stop-color="rgb(215, 122, 216)"/><stop offset="34%" stop-color="rgb(211, 124, 222)"/><stop offset="37%" stop-color="rgb(208, 125, 227)"/><stop offset="40%" stop-color="rgb(204, 127, 233)"/><stop offset="43%" stop-color="rgb(201, 128, 238)"/><stop offset="46%" stop-color="rgb(197, 129, 243)"/><stop offset="49%" stop-color="rgb(193, 131, 249)"/><stop offset="51%" stop-color="rgb(186, 136, 246)"/><stop offset="54%" stop-color="rgb(175, 144, 234)"/><stop offset="57%" stop-color="rgb(163, 153, 222)"/><stop offset="60%" stop-color="rgb(152, 162, 210)"/><stop offset="63%" stop-color="rgb(141, 170, 198)"/><stop offset="66%" stop-color="rgb(130, 179, 187)"/><stop offset="69%" stop-color="rgb(118, 187, 175)"/><stop offset="71%" stop-color="rgb(107, 196, 163)"/><stop offset="74%" stop-color="rgb(96, 204, 151)"/><stop offset="77%" stop-color="rgb(85, 213, 139)"/><stop offset="80%" stop-color="rgb(74, 222, 128)"/><stop offset="83%" stop-color="rgb(96, 221, 146)"/><stop offset="86%" stop-color="rgb(119, 221, 164)"/><stop offset="89%" stop-color="rgb(142, 221, 182)"/><stop offset="91%" stop-color="rgb(165, 221, 200)"/><stop offset="94%" stop-color="rgb(188, 221, 218)"/><stop offset="97%" stop-color="rgb(211, 221, 236)"/><stop offset="100%" stop-color="rgb(233, 221, 254)"/></linearGradient>
    <radialGradient id="bg" cx="0.5" cy="0.42" r="0.8">
      <stop offset="0%" stop-color="#2a2a44"/>
      <stop offset="100%" stop-color="#14141f"/>
    </radialGradient>
    <filter id="glow" x="-40%" y="-40%" width="180%" height="180%">
      <feGaussianBlur stdDeviation="7" result="b"/>
      <feMerge><feMergeNode in="b"/><feMergeNode in="SourceGraphic"/></feMerge>
    </filter>
  </defs>
  <rect x="12" y="12" width="488" height="488" rx="104" fill="url(#bg)"/>
  <g filter="url(#glow)">
    <path d="M239.9 88.8 Q256.0 50.0 272.1 88.8" fill="none" stroke="rgb(255, 107, 157)" stroke-width="7" stroke-linecap="round"/><path d="M269.2 88.5 Q294.5 37.7 300.9 94.1" fill="none" stroke="rgb(251, 108, 162)" stroke-width="7" stroke-linecap="round"/><path d="M298.1 93.4 Q333.1 44.1 328.3 104.4" fill="none" stroke="rgb(248, 109, 167)" stroke-width="7" stroke-linecap="round"/><path d="M325.7 103.1 Q363.3 70.2 353.6 119.2" fill="none" stroke="rgb(244, 111, 172)" stroke-width="7" stroke-linecap="round"/><path d="M351.2 117.5 Q382.7 105.0 375.8 138.2" fill="none" stroke="rgb(241, 112, 178)" stroke-width="7" stroke-linecap="round"/><path d="M373.8 136.2 Q398.8 136.2 394.5 160.8" fill="none" stroke="rgb(237, 113, 183)" stroke-width="7" stroke-linecap="round"/><path d="M392.8 158.4 Q421.0 160.7 408.9 186.3" fill="none" stroke="rgb(234, 115, 188)" stroke-width="7" stroke-linecap="round"/><path d="M407.6 183.7 Q449.9 185.4 418.6 213.9" fill="none" stroke="rgb(230, 116, 193)" stroke-width="7" stroke-linecap="round"/><path d="M417.9 211.1 Q474.5 217.5 423.5 242.8" fill="none" stroke="rgb(227, 118, 199)" stroke-width="7" stroke-linecap="round"/><path d="M423.2 239.9 Q481.4 256.0 423.2 272.1" fill="none" stroke="rgb(223, 119, 204)" stroke-width="7" stroke-linecap="round"/><path d="M423.5 269.2 Q467.0 293.2 417.9 300.9" fill="none" stroke="rgb(220, 120, 209)" stroke-width="7" stroke-linecap="round"/><path d="M418.6 298.1 Q441.0 323.3 407.6 328.3" fill="none" stroke="rgb(216, 122, 215)" stroke-width="7" stroke-linecap="round"/><path d="M408.9 325.7 Q417.4 349.2 392.8 353.6" fill="none" stroke="rgb(213, 123, 220)" stroke-width="7" stroke-linecap="round"/><path d="M394.5 351.2 Q402.1 378.6 373.8 375.8" fill="none" stroke="rgb(209, 125, 225)" stroke-width="7" stroke-linecap="round"/><path d="M375.8 373.8 Q388.8 414.3 351.2 394.5" fill="none" stroke="rgb(206, 126, 230)" stroke-width="7" stroke-linecap="round"/><path d="M353.6 392.8 Q367.0 448.3 325.7 408.9" fill="none" stroke="rgb(202, 127, 236)" stroke-width="7" stroke-linecap="round"/><path d="M328.3 407.6 Q333.1 467.7 298.1 418.6" fill="none" stroke="rgb(199, 129, 241)" stroke-width="7" stroke-linecap="round"/><path d="M300.9 417.9 Q293.1 466.7 269.2 423.5" fill="none" stroke="rgb(195, 130, 246)" stroke-width="7" stroke-linecap="round"/><path d="M272.1 423.2 Q256.0 452.6 239.9 423.2" fill="none" stroke="rgb(192, 132, 252)" stroke-width="7" stroke-linecap="round"/><path d="M242.8 423.5 Q223.6 439.5 211.1 417.9" fill="none" stroke="rgb(181, 140, 240)" stroke-width="7" stroke-linecap="round"/><path d="M213.9 418.6 Q190.7 435.5 183.7 407.6" fill="none" stroke="rgb(170, 148, 229)" stroke-width="7" stroke-linecap="round"/><path d="M186.3 408.9 Q152.5 435.3 158.4 392.8" fill="none" stroke="rgb(159, 157, 217)" stroke-width="7" stroke-linecap="round"/><path d="M160.8 394.5 Q113.1 426.3 136.2 373.8" fill="none" stroke="rgb(148, 165, 206)" stroke-width="7" stroke-linecap="round"/><path d="M138.2 375.8 Q83.5 400.8 117.5 351.2" fill="none" stroke="rgb(137, 173, 194)" stroke-width="7" stroke-linecap="round"/><path d="M119.2 353.6 Q71.0 362.8 103.1 325.7" fill="none" stroke="rgb(126, 182, 183)" stroke-width="7" stroke-linecap="round"/><path d="M104.4 328.3 Q71.6 323.1 93.4 298.1" fill="none" stroke="rgb(115, 190, 171)" stroke-width="7" stroke-linecap="round"/><path d="M94.1 300.9 Q72.6 288.3 88.5 269.2" fill="none" stroke="rgb(104, 198, 160)" stroke-width="7" stroke-linecap="round"/><path d="M88.8 272.1 Q64.8 256.0 88.8 239.9" fill="none" stroke="rgb(93, 207, 148)" stroke-width="7" stroke-linecap="round"/><path d="M88.5 242.8 Q51.8 220.0 94.1 211.1" fill="none" stroke="rgb(82, 215, 137)" stroke-width="7" stroke-linecap="round"/><path d="M93.4 213.9 Q46.9 179.9 104.4 183.7" fill="none" stroke="rgb(78, 221, 131)" stroke-width="7" stroke-linecap="round"/><path d="M103.1 186.3 Q61.0 143.4 119.2 158.4" fill="none" stroke="rgb(100, 221, 149)" stroke-width="7" stroke-linecap="round"/><path d="M117.5 160.8 Q92.6 118.9 138.2 136.2" fill="none" stroke="rgb(122, 221, 166)" stroke-width="7" stroke-linecap="round"/><path d="M136.2 138.2 Q130.0 105.9 160.8 117.5" fill="none" stroke="rgb(145, 221, 184)" stroke-width="7" stroke-linecap="round"/><path d="M158.4 119.2 Q162.9 94.7 186.3 103.1" fill="none" stroke="rgb(167, 221, 202)" stroke-width="7" stroke-linecap="round"/><path d="M183.7 104.4 Q190.5 76.1 213.9 93.4" fill="none" stroke="rgb(189, 221, 219)" stroke-width="7" stroke-linecap="round"/><path d="M211.1 94.1 Q219.9 51.5 242.8 88.5" fill="none" stroke="rgb(211, 221, 237)" stroke-width="7" stroke-linecap="round"/>
    <circle cx="256" cy="256" r="168" fill="none" stroke="url(#rg)" stroke-width="16"/>
    <circle cx="256" cy="256" r="92" fill="none" stroke="url(#rg)" stroke-width="10" opacity="0.75"/>
  </g>
  <circle cx="256" cy="256" r="7" fill="#EADDFF"/>
</svg>